<svg width="230" height="84" viewBox="0 0 230 84" fill="none" xmlns="http://www.w3.org/2000/svg">
<rect opacity="0.2" width="230" height="84" fill="white"/>
<path d="M99.793 46.104C101.067 46.104 102.016 45.558 102.016 40.319V40.163H104.824V46H105.825V39.279H101.067V39.838C101.067 44.882 100.391 45.233 99.585 45.233C99.468 45.233 99.234 45.181 99.104 45.142L98.987 46C99.195 46.052 99.572 46.104 99.793 46.104ZM111.133 46.156C113.161 46.156 114.656 44.544 114.656 42.646C114.656 40.722 113.174 39.136 111.159 39.136C109.131 39.136 107.649 40.748 107.649 42.646C107.649 44.57 109.118 46.156 111.133 46.156ZM111.159 45.259C109.742 45.259 108.676 44.089 108.676 42.646C108.676 41.203 109.677 40.02 111.133 40.02C112.55 40.02 113.629 41.203 113.629 42.646C113.629 44.089 112.615 45.259 111.159 45.259ZM116.47 46H117.471V40.163H121.033V39.279H116.47V46ZM125.555 46.156C127.583 46.156 129.078 44.544 129.078 42.646C129.078 40.722 127.596 39.136 125.581 39.136C123.553 39.136 122.071 40.748 122.071 42.646C122.071 44.57 123.54 46.156 125.555 46.156ZM125.581 45.259C124.164 45.259 123.098 44.089 123.098 42.646C123.098 41.203 124.099 40.02 125.555 40.02C126.972 40.02 128.051 41.203 128.051 42.646C128.051 44.089 127.037 45.259 125.581 45.259Z" fill="white"/>
</svg>
